<svg width="1338" height="877" viewBox="0 0 1338 877" fill="none" xmlns="http://www.w3.org/2000/svg">
<g filter="url(#filter0_d_72_10)">
<path d="M341.363 851.522C278.964 827.992 248.49 811.046 201.002 775.2C152.189 746.026 115.078 736.081 74.2072 689.212C33.5731 640.258 17.7154 605.215 4.28753 526.393C2.43854 456.436 9.30019 414.522 30.8987 336.608L47.5959 172.263C95.2942 62.2527 132.236 15.5107 261.007 24.2004C339.581 42.2509 379.004 56.9691 446.242 86.275C517.45 110.233 556.538 116.811 624.694 115.277C723.263 109.503 775.985 99.2148 862.629 60.3258C970.591 -10.7925 1026.33 -20.4606 1111 38.9558C1132.05 59.4956 1183.87 75.7375 1236.23 115.277C1314.2 181.714 1346.53 224.447 1329.63 336.608C1317.37 402.363 1311.62 437.575 1314.5 481.11C1330.22 580.153 1355 635.745 1296.24 734.496C1252.48 823.26 1195.3 839.039 1041.08 812.852C952.641 807.185 904.065 811.337 819.321 832.187C732.097 849.689 678.047 857.289 574.602 867.803C477.745 870.271 424.113 870.63 341.363 851.522Z" fill="#B77729"/>
</g>
<defs>
<filter id="filter0_d_72_10" x="0" y="0" width="1338" height="877" filterUnits="userSpaceOnUse" color-interpolation-filters="sRGB">
<feFlood flood-opacity="0" result="BackgroundImageFix"/>
<feColorMatrix in="SourceAlpha" type="matrix" values="0 0 0 0 0 0 0 0 0 0 0 0 0 0 0 0 0 0 127 0" result="hardAlpha"/>
<feOffset dy="4"/>
<feGaussianBlur stdDeviation="2"/>
<feComposite in2="hardAlpha" operator="out"/>
<feColorMatrix type="matrix" values="0 0 0 0 0 0 0 0 0 0 0 0 0 0 0 0 0 0 0.25 0"/>
<feBlend mode="normal" in2="BackgroundImageFix" result="effect1_dropShadow_72_10"/>
<feBlend mode="normal" in="SourceGraphic" in2="effect1_dropShadow_72_10" result="shape"/>
</filter>
</defs>
</svg>
